<svg id="bulb" xmlns="http://www.w3.org/2000/svg" width="39.821" height="54.436" viewBox="0 0 39.821 54.436">
  <path id="Path_2497" data-name="Path 2497" d="M51.2,88A14.654,14.654,0,0,0,40.77,92.315a2.268,2.268,0,0,0,3.207,3.209,10.209,10.209,0,1,1,11.858,16.313c-.04.02-.071.049-.11.07a2.333,2.333,0,0,0-.2.128c-.06.044-.115.091-.17.14s-.105.1-.154.151-.1.113-.143.173-.084.116-.121.177-.071.125-.1.189-.062.135-.09.207a2.139,2.139,0,0,0-.063.205c-.018.07-.035.141-.048.213a2.035,2.035,0,0,0-.024.239c0,.043-.012.084-.012.127v2.5h-6.8v-2.5c0-.043-.01-.084-.012-.126,0-.08-.012-.16-.024-.239a2.119,2.119,0,0,0-.048-.213c-.018-.069-.039-.138-.064-.205s-.056-.138-.09-.207-.065-.127-.1-.189-.078-.12-.121-.177-.092-.118-.143-.173a2.1,2.1,0,0,0-.154-.151,2.071,2.071,0,0,0-.17-.14c-.064-.047-.131-.088-.2-.128-.038-.023-.07-.051-.11-.07a10.178,10.178,0,0,1-5.567-9.1,2.268,2.268,0,0,0-4.536,0,14.674,14.674,0,0,0,6.8,12.416v6.863a7.939,7.939,0,1,0,15.877,0v-6.863A14.738,14.738,0,0,0,51.2,88Zm0,37.425a3.407,3.407,0,0,1-3.4-3.4v-1.134h6.8v1.134A3.406,3.406,0,0,1,51.2,125.424Zm0,0" transform="translate(-31.285 -75.525)" fill="#fff"/>
  <path id="Path_2498" data-name="Path 2498" d="M128.989,4.536V2.268a2.268,2.268,0,0,0-4.536,0V4.536a2.268,2.268,0,0,0,4.536,0Zm0,0" transform="translate(-106.811)" fill="#fff"/>
  <path id="Path_2499" data-name="Path 2499" d="M5.475,53.814l-1.6-1.6A2.268,2.268,0,0,0,.665,55.417l1.6,1.6a2.268,2.268,0,1,0,3.207-3.207Zm0,0" transform="translate(0 -44.239)" fill="#fff"/>
  <path id="Path_2500" data-name="Path 2500" d="M239.869,52.21l-1.6,1.6a2.268,2.268,0,1,0,3.207,3.207l1.6-1.6a2.268,2.268,0,0,0-3.207-3.207Zm0,0" transform="translate(-203.919 -44.239)" fill="#fff"/>
</svg>
