<svg xmlns="http://www.w3.org/2000/svg" width="50.767" height="50.767" viewBox="0 0 50.767 50.767">
  <g id="clock_1_" data-name="clock (1)" transform="translate(0.25 0.25)">
    <path id="Path_2501" data-name="Path 2501" d="M44.978,13.226a2.094,2.094,0,0,0-.973,2.8,20.731,20.731,0,0,1,2.073,9.11A20.944,20.944,0,1,1,25.134,4.189a20.693,20.693,0,0,1,13,4.519,2.094,2.094,0,1,0,2.606-3.279,25.137,25.137,0,1,0,9.525,19.7A24.877,24.877,0,0,0,47.775,14.2a2.092,2.092,0,0,0-2.8-.973Zm0,0" transform="translate(0 0)" fill="#fff" stroke="#fff" stroke-width="0.5"/>
    <path id="Path_2502" data-name="Path 2502" d="M178.094,64A2.1,2.1,0,0,0,176,66.094V80.756a2.1,2.1,0,0,0,2.094,2.094h10.472a2.094,2.094,0,0,0,0-4.189h-8.378V66.094A2.1,2.1,0,0,0,178.094,64Zm0,0" transform="translate(-152.961 -55.622)" fill="#fff" stroke="#fff" stroke-width="0.5"/>
  </g>
</svg>
