<svg xmlns="http://www.w3.org/2000/svg" width="79.82" height="45.612" viewBox="0 0 79.82 45.612">
  <g id="Group_4012" data-name="Group 4012" transform="translate(-3 -66)">
    <path id="Path_2504" data-name="Path 2504" d="M82.4,80.8a2.468,2.468,0,0,0-2.332-1.019c-5.5-.706-8.071-6.25-12.2-8.868-2.758-1.539-5.75-1.271-8.593-1.571A2.555,2.555,0,0,0,57.033,66a2.471,2.471,0,0,0-2.117,1.292L42.9,88.854,30.9,67.293A2.472,2.472,0,0,0,28.71,66h0a2.554,2.554,0,0,0-2.167,3.344c-1.16.141-2.395.215-3.6.331a2.33,2.33,0,0,0-1.785,3.513l.026.043a2.327,2.327,0,0,0,2.253,1.12c1.978-.217,3.929-.072,5.574-.522h0l7.081,12.694c-3.141.049-6.77-.418-9,.887-4.279,2.684-6.694,7.052-11.238,8.944L9.181,84.04c2.886-.928,4.865-2.96,6.851-5.017a2.326,2.326,0,0,0,.323-2.809l-.025-.042a2.327,2.327,0,0,0-3.7-.389c-2.1,2.247-4.284,4.277-6.9,4a2.467,2.467,0,0,0-2.312,1.033,2.5,2.5,0,0,0-.133,2.54l9.273,17.1a2.472,2.472,0,0,0,2.268,1.242c6.758-.8,9.553-6.78,14.792-10.134,3.051-.845,6.219.326,9.046-.405l1.487,2.66L32.338,107.83a2.544,2.544,0,0,0,.815,3.505,2.515,2.515,0,0,0,3.393-1.149L42.9,98.76l6.375,11.427a2.515,2.515,0,0,0,3.393,1.149,2.544,2.544,0,0,0,.815-3.505L45.669,93.819l1.461-2.635c3.067.783,6.093-.463,9.072.38,4.822,3.509,9.255,9.7,14.791,10.134a2.473,2.473,0,0,0,2.268-1.242l9.273-17.1A2.5,2.5,0,0,0,82.4,80.8ZM69.96,96.353C65.4,94.4,62.611,89.867,58.721,87.409c-2.935-1.593-6.036-.877-9-.887L56.806,73.8c2.693,1.116,6.088-.161,8.542,1.267,3.927,3.111,6.809,7.284,11.289,8.969Z" transform="translate(0 0)" fill="#fff"/>
  </g>
</svg>
