<svg xmlns="http://www.w3.org/2000/svg" width="215.356" height="50.204" viewBox="0 0 215.356 50.204">
  <g id="logo-1" transform="translate(-25.52 -35.229)">
    <path id="Path_1" data-name="Path 1" d="M61.51,44.883h5.455V66.976H61.51Zm7.631,13.783c0-5.472,3.4-8.752,8.5-8.752s8.5,3.28,8.5,8.752-3.28,8.786-8.5,8.786S69.141,64.257,69.141,58.665Zm11.59,0c0-3.008-1.173-4.776-3.042-4.776s-3.025,1.7-3.025,4.776,1.156,4.759,3.025,4.759,3.076-1.682,3.076-4.742Zm7.58,9.449h5.268a2.821,2.821,0,0,0,2.957,1.7c2.09,0,3.178-1.122,3.178-2.787V63.968h.017a5.217,5.217,0,0,1-5.1,2.974c-3.994,0-6.645-3.042-6.645-8.276s2.532-8.5,6.8-8.5a5.217,5.217,0,0,1,5.1,3.212h-.153V50.3h5.4V66.857c0,3.994-3.535,6.492-8.735,6.492-4.725-.017-7.75-2.175-8.056-5.217Zm11.421-9.449c0-2.668-1.224-4.351-3.161-4.351s-3.127,1.7-3.127,4.351,1.173,4.215,3.127,4.215S99.731,61.435,99.731,58.665Zm7.563,0c0-5.472,3.4-8.752,8.5-8.752s8.5,3.28,8.5,8.752-3.3,8.786-8.5,8.786-8.463-3.2-8.463-8.786Zm11.59,0c0-3.008-1.19-4.776-3.042-4.776s-3.025,1.7-3.025,4.776,1.156,4.759,3.025,4.759,3.076-1.682,3.076-4.742ZM126.5,46.276a2.787,2.787,0,1,1,2.787,2.668,2.685,2.685,0,0,1-2.753-2.651Zm0,4.011h5.523V67.044h-5.438Zm25.39,8.378c0,5.455-2.447,8.616-6.611,8.616a5.217,5.217,0,0,1-5.1-3.11h-.1v8.259h-5.455V50.338h5.421v2.991h.1a5.251,5.251,0,0,1,5.1-3.229c4.283-.034,6.747,3.11,6.747,8.582Zm-5.557,0c0-2.651-1.241-4.368-3.161-4.368s-3.127,1.7-3.144,4.368,1.224,4.351,3.144,4.351,3.263-1.581,3.263-4.334ZM161.2,49.9c4.572,0,7.41,2.158,7.444,5.625h-4.979c0-1.207-1-1.954-2.5-1.954s-2.209.578-2.209,1.445.629,1.139,1.886,1.394l3.5.714c3.4.714,4.759,2.073,4.759,4.606,0,3.4-3.144,5.71-7.818,5.71s-7.716-2.243-7.937-5.659h5.285c.153,1.241,1.139,1.971,2.736,1.971s2.345-.51,2.345-1.411-.51-1.054-1.818-1.326l-3.161-.663c-3.28-.7-5-2.413-5-4.979.1-3.331,2.957-5.455,7.563-5.455Zm26.172,17.131h-5.285V63.883h-.1a4.793,4.793,0,0,1-4.878,3.484,5.829,5.829,0,0,1-6-6.305V50.3h5.455v9.585c0,1.971,1.037,3.042,2.736,3.042a2.787,2.787,0,0,0,2.736-3.2V50.3h5.438Zm2.634-16.74h5.3v3.229h.119a4.86,4.86,0,0,1,4.776-3.535,4.351,4.351,0,0,1,4.657,3.552h.238a5.1,5.1,0,0,1,5.1-3.552,5.3,5.3,0,0,1,5.489,5.693v11.37H210.2V57.068c0-1.7-.8-2.651-2.345-2.651a2.379,2.379,0,0,0-2.4,2.7v9.925h-5.2V57.017c0-1.7-.833-2.6-2.328-2.6a2.43,2.43,0,0,0-2.43,2.736v9.891h-5.455Z" transform="translate(25.174 5.694)" fill="#fff"/>
    <path id="Path_2" data-name="Path 2" d="M75.893,52.021A16.791,16.791,0,0,0,46.729,40.669H25.52V85.433H70.3V64.513A16.774,16.774,0,0,0,75.893,52.021Zm-8.616,0a8.191,8.191,0,1,1-8.191-8.174,8.191,8.191,0,0,1,8.191,8.174Zm-5.591,24.8H34.136V49.285h8.4a16.229,16.229,0,0,0-.255,2.736A16.825,16.825,0,0,0,59.085,68.829a16.433,16.433,0,0,0,2.6-.221Z" transform="translate(0)" fill="#8cc3ec"/>
  </g>
</svg>
